<svg width="45" height="45" viewBox="0 0 45 45" fill="none" xmlns="http://www.w3.org/2000/svg">
<path d="M19.6875 0C14.2312 0 9.3375 2.25 5.79375 5.79375L22.5 22.5V0.16875C21.6 0.05625 20.6437 0 19.6875 0ZM28.125 5.9625V25.1437L12.825 40.4437C16.2563 43.2562 20.5312 45 25.3125 45C36.1688 45 45 36.1688 45 25.3125C45 15.4125 37.6312 7.36875 28.125 5.9625ZM5.11875 13.3312C1.96875 16.3687 0 20.5875 0 25.3125C0 30.7125 2.5875 35.3813 6.525 38.475L18.5063 26.4937L5.11875 13.3312Z" fill="white"/>
</svg>
